<!-- icon666.com - MILLIONS OF FREE VECTOR ICONS --><svg clip-rule="evenodd" fill-rule="evenodd" image-rendering="optimizeQuality" shape-rendering="geometricPrecision" text-rendering="geometricPrecision" viewBox="0 0 1707 1707" xmlns="http://www.w3.org/2000/svg"><g id="Layer_x0020_1"><path d="m853 1707c-5 0-10-3-14-6-411-411-836-836-836-1259 0-437 603-628 850-204 248-424 850-233 850 204 0 423-424 848-835 1259-4 3-10 6-15 6z" fill="#b7b7b8"></path><path d="m853 1400c-5 0-10-2-14-5-261-261-531-531-531-802 0-279 380-404 545-143 165-261 545-136 545 143 0 271-270 541-531 802-4 3-9 5-14 5z" fill="#a7a7a7"></path></g></svg>