<!-- icon666.com - MILLIONS OF FREE VECTOR ICONS --><svg version="1.1" id="Capa_1" xmlns="http://www.w3.org/2000/svg" xmlns:xlink="http://www.w3.org/1999/xlink" x="0px" y="0px" viewBox="0 0 512 512" style="enable-background:new 0 0 512 512;" xml:space="preserve"><rect x="57.493" y="242.505" style="fill:#A86838;" width="397.054" height="27.002"></rect><rect x="57.493" y="242.505" style="fill:#AA5D24;" width="28.142" height="27.002"></rect><path style="fill:#70B5E8;" d="M123.69,242.5H95.035c-6.304,0-11.463-5.158-11.463-11.463V83.54c0-6.304,5.158-11.463,11.463-11.463 h28.657c6.304,0,11.463,5.158,11.463,11.463v147.497C135.153,237.341,129.995,242.5,123.69,242.5z"></path><path style="fill:#A2DAF9;" d="M175.273,242.5h-28.657c-6.304,0-11.463-5.158-11.463-11.463V111.542 c0-6.304,5.158-11.463,11.463-11.463h28.657c6.304,0,11.463,5.158,11.463,11.463v119.495 C186.735,237.341,181.577,242.5,175.273,242.5z"></path><path style="fill:#FC7777;" d="M430.692,151.122v28.657c0,6.304-5.158,11.463-11.463,11.463H299.734 c-6.304,0-11.463-5.158-11.463-11.463v-28.657c0-6.304,5.158-11.463,11.463-11.463h119.495 C425.534,139.66,430.692,144.818,430.692,151.122z"></path><path style="fill:#70B5E8;" d="M226.855,242.5h-28.657c-6.304,0-11.463-5.158-11.463-11.463V83.54 c0-6.304,5.158-11.463,11.463-11.463h28.657c6.304,0,11.463,5.158,11.463,11.463v147.497 C238.316,237.341,233.159,242.5,226.855,242.5z"></path><path style="fill:#4AA5D3;" d="M109.363,231.037V83.54c0-6.304,5.158-11.463,11.463-11.463H95.035 c-6.304,0-11.463,5.158-11.463,11.463v147.497c0,6.304,5.158,11.463,11.463,11.463h25.791 C114.521,242.5,109.363,237.341,109.363,231.037z"></path><path style="fill:#95CCEF;" d="M160.945,231.037V111.542c0-6.304,5.158-11.463,11.463-11.463h-25.791 c-6.304,0-11.463,5.158-11.463,11.463v119.495c0,6.304,5.158,11.463,11.463,11.463h25.791 C166.102,242.5,160.945,237.341,160.945,231.037z"></path><path style="fill:#4AA5D3;" d="M212.526,231.037V83.54c0-6.304,5.158-11.463,11.463-11.463h-25.791 c-6.304,0-11.463,5.158-11.463,11.463v147.497c0,6.304,5.158,11.463,11.463,11.463h25.791 C217.684,242.5,212.526,237.341,212.526,231.037z"></path><g><path style="fill:#76A314;" d="M123.69,477.498H95.035c-6.304,0-11.463-5.158-11.463-11.463V318.538 c0-6.304,5.158-11.463,11.463-11.463h28.657c6.304,0,11.463,5.158,11.463,11.463v147.497 C135.153,472.34,129.995,477.498,123.69,477.498z"></path><path style="fill:#76A314;" d="M226.855,477.498h-28.657c-6.304,0-11.463-5.158-11.463-11.463V318.538 c0-6.304,5.158-11.463,11.463-11.463h28.657c6.304,0,11.463,5.158,11.463,11.463v147.497 C238.316,472.34,233.159,477.498,226.855,477.498z"></path></g><path style="fill:#70B5E8;" d="M312.974,470.858l-27.943,6.355c-6.147,1.398-12.321-2.488-13.719-8.636l-32.71-143.824 c-1.398-6.147,2.488-12.321,8.636-13.719l27.943-6.355c6.147-1.398,12.321,2.488,13.719,8.636l32.71,143.824 C323.007,463.286,319.121,469.459,312.974,470.858z"></path><path style="fill:#A2DAF9;" d="M365.928,470.858l-27.943,6.355c-6.147,1.398-12.321-2.488-13.719-8.636l-32.71-143.824 c-1.398-6.147,2.487-12.321,8.636-13.719l27.943-6.355c6.147-1.398,12.321,2.488,13.719,8.636l32.71,143.824 C375.962,463.286,372.076,469.459,365.928,470.858z"></path><path style="fill:#95CCEF;" d="M349.75,464.199l-33.766-148.47c-0.692-3.042-0.12-6.084,1.351-8.593l-17.144,3.899 c-6.147,1.398-10.034,7.571-8.636,13.719l32.71,143.824c1.398,6.147,7.571,10.034,13.719,8.636l19.541-4.444 C353.751,471.489,350.694,468.349,349.75,464.199z"></path><path style="fill:#4AA5D3;" d="M296.796,464.199l-33.766-148.47c-0.692-3.042-0.12-6.084,1.351-8.593l-17.144,3.899 c-6.147,1.398-10.034,7.571-8.636,13.719l32.71,143.824c1.398,6.147,7.571,10.034,13.719,8.636l19.541-4.444 C300.797,471.489,297.739,468.349,296.796,464.199z"></path><path style="fill:#AECC2F;" d="M175.273,477.498h-28.657c-6.304,0-11.463-5.158-11.463-11.463V318.538 c0-6.304,5.158-11.463,11.463-11.463h28.657c6.304,0,11.463,5.158,11.463,11.463v147.497 C186.735,472.34,181.577,477.498,175.273,477.498z"></path><g><path style="fill:#709312;" d="M109.363,466.035V318.538c0-6.304,5.158-11.463,11.463-11.463H95.035 c-6.304,0-11.463,5.158-11.463,11.463v147.497c0,6.304,5.158,11.463,11.463,11.463h25.791 C114.521,477.498,109.363,472.34,109.363,466.035z"></path><path style="fill:#709312;" d="M212.526,466.035V318.538c0-6.304,5.158-11.463,11.463-11.463h-25.791 c-6.304,0-11.463,5.158-11.463,11.463v147.497c0,6.304,5.158,11.463,11.463,11.463h25.791 C217.684,477.498,212.526,472.34,212.526,466.035z"></path></g><path style="fill:#8AA51B;" d="M160.945,466.035V318.538c0-6.304,5.158-11.463,11.463-11.463h-25.791 c-6.304,0-11.463,5.158-11.463,11.463v147.497c0,6.304,5.158,11.463,11.463,11.463h25.791 C166.102,477.498,160.945,472.34,160.945,466.035z"></path><path style="fill:#F94A46;" d="M430.692,202.38v28.657c0,6.304-5.158,11.463-11.463,11.463H271.732 c-6.304,0-11.463-5.158-11.463-11.463V202.38c0-6.304,5.158-11.463,11.463-11.463h147.497 C425.534,190.918,430.692,196.076,430.692,202.38z"></path><path style="fill:#FC6060;" d="M419.229,165.613H299.734c-6.304,0-11.463-5.158-11.463-11.463v25.629 c0,6.304,5.158,11.463,11.463,11.463h119.495c6.304,0,11.463-5.158,11.463-11.463V154.15 C430.692,160.455,425.534,165.613,419.229,165.613z"></path><path style="fill:#EA3939;" d="M419.229,216.87H271.732c-6.304,0-11.463-5.158-11.463-11.463v25.629 c0,6.304,5.158,11.463,11.463,11.463h147.497c6.304,0,11.463-5.158,11.463-11.463v-25.629 C430.692,211.712,425.534,216.87,419.229,216.87z"></path><path style="fill:#B77946;" d="M462.023,7.5H49.977c-9.092,0-16.461,7.37-16.461,16.461v464.076c0,9.092,7.37,16.461,16.461,16.461 c49.035,0,365.497,0,412.047,0c9.092,0,16.461-7.369,16.461-16.461c0-15.075,0-444.499,0-464.076 C478.485,14.87,471.115,7.5,462.023,7.5z M451.483,470.443c0,3.896-3.158,7.054-7.054,7.054H67.545 c-3.896,0-7.054-3.158-7.054-7.054V41.556c0-3.896,3.158-7.053,7.054-7.053h376.884c3.896,0,7.054,3.158,7.054,7.053 L451.483,470.443L451.483,470.443z"></path><path style="fill:#A86838;" d="M60.248,488.038V23.961c0-9.092,7.37-16.461,16.461-16.461H49.977 c-9.092,0-16.461,7.37-16.461,16.461v464.076c0,9.092,7.37,16.461,16.461,16.461c9.159,0,17.393,0,26.733,0 C67.618,504.5,60.248,497.129,60.248,488.038z"></path><path d="M67.545,484.998c96.114,0,309.121,0,376.884,0c8.025,0,14.555-6.528,14.555-14.555c0.118-475.163,0.003,45.253,0-428.887 c0-8.025-6.528-14.555-14.555-14.555H67.545c-8.025,0-14.555,6.529-14.555,14.555c0,20.692,0,415.851,0,428.887 C52.99,478.469,59.52,484.998,67.545,484.998z M95.034,469.997c-2.147,0-3.962-1.814-3.962-3.962V318.539 c0-2.147,1.814-3.962,3.962-3.962h28.657c2.147,0,3.962,1.814,3.962,3.962v147.496c0,2.147-1.814,3.962-3.962,3.962H95.034z M146.616,469.997c-2.147,0-3.962-1.814-3.962-3.962V318.539c0-2.147,1.814-3.962,3.962-3.962h28.656 c2.147,0,3.962,1.814,3.962,3.962v147.496c0,2.147-1.814,3.962-3.962,3.962H146.616z M198.198,469.997 c-2.147,0-3.962-1.814-3.962-3.962V318.539c0-2.147,1.814-3.962,3.962-3.962h28.657c2.147,0,3.962,1.814,3.962,3.962v147.496 c0,2.147-1.814,3.962-3.962,3.962H198.198z M245.818,390.306l18.124,79.692h-18.547 C246.186,466.289,245.667,468.776,245.818,390.306z M364.266,463.544L364.266,463.544l-27.945,6.354 c-2.107,0.477-4.262-0.873-4.741-2.984L298.871,323.09c-0.477-2.094,0.891-4.265,2.984-4.741 c29.651-6.705,28.879-7.123,30.925-5.833c0.523,0.329,1.447,1.087,1.76,2.463l32.71,143.825 C367.729,460.908,366.375,463.064,364.266,463.544z M314.295,458.802c0.478,2.105-0.875,4.262-2.984,4.741l-27.944,6.354 c-2.087,0.481-4.265-0.892-4.741-2.984l-32.711-143.822c-0.477-2.095,0.891-4.267,2.984-4.743c29.42-6.655,27.978-6.449,28.79-6.449 c1.802,0,3.483,1.268,3.896,3.079L314.295,458.802z M379.268,469.997c2.908-4.48,3.721-9.636,2.61-14.522l-32.71-143.823 c-1.12-4.928-4.102-9.13-8.397-11.833c-4.296-2.705-9.378-3.573-14.299-2.454c-28.003,6.613-28.71,5.966-32.83,8.221 c-4.251-6.58-12.204-10.023-20.126-8.221c-27.94,6.6-28.715,5.964-32.843,8.228c-3.462-3.694-8.368-6.018-13.82-6.018h-28.657 c-4.309,0-8.275,1.461-11.463,3.892c-3.188-2.43-7.153-3.892-11.463-3.892h-28.656c-4.309,0-8.275,1.461-11.463,3.892 c-3.188-2.43-7.153-3.892-11.463-3.892H95.034c-10.457,0-18.963,8.507-18.963,18.963c0.156,156.063-0.377,147.707,0.423,151.458 h-8.503V277.001H365.35c4.143,0,7.5-3.357,7.5-7.5s-3.357-7.5-7.5-7.5H67.991v-12.001c108.581,0,267.678,0,375.992,0V262h-43.631 c-4.143,0-7.5,3.357-7.5,7.5s3.357,7.5,7.5,7.5h43.631v192.996L379.268,469.997L379.268,469.997z M91.072,231.036V83.54 c0-2.147,1.814-3.962,3.962-3.962h28.657c2.147,0,3.962,1.814,3.962,3.962c0,3.77,0,80.82,0,147.497 c0,2.147-1.814,3.962-3.962,3.962H95.034C92.887,234.998,91.072,233.184,91.072,231.036z M230.817,231.036 c0,2.147-1.814,3.962-3.962,3.962h-28.657c-2.147,0-3.962-1.814-3.962-3.962V111.542V83.54c0-2.147,1.814-3.962,3.962-3.962h28.657 c2.147,0,3.962,1.814,3.962,3.962V231.036z M179.235,231.036c0,2.147-1.814,3.962-3.962,3.962h-28.656 c-2.147,0-3.962-1.814-3.962-3.962V111.542c0-2.147,1.814-3.962,3.962-3.962h28.656c2.147,0,3.962,1.814,3.962,3.962V231.036z M267.77,231.036v-28.657c0-2.147,1.814-3.962,3.962-3.962h147.497c2.147,0,3.962,1.814,3.962,3.962v28.657 c0,2.147-1.814,3.962-3.962,3.962H271.732C269.584,234.998,267.77,233.184,267.77,231.036z M423.192,178.779 c0,2.147-1.814,3.962-3.962,3.962H299.734c-2.147,0-3.962-1.814-3.962-3.962v-28.657c0-2.147,1.814-3.962,3.962-3.962h119.495 c2.147,0,3.962,1.814,3.962,3.962L423.192,178.779L423.192,178.779z M443.983,42.003v192.996h-6.213 c0.762-3.569,0.288-4.364,0.423-32.619c0-4.46-1.558-8.559-4.145-11.801c2.587-3.242,4.145-7.34,4.145-11.801v-28.657 c0-10.457-8.507-18.963-18.963-18.963H299.734c-10.457,0-18.963,8.507-18.963,18.963v28.657c0,1.602,0.222,3.15,0.598,4.638h-9.637 c-10.457,0-18.963,8.507-18.963,18.963c0.141,29.342-0.321,29.133,0.423,32.619h-7.798c0.8-3.748,0.267,4.599,0.423-151.459 c0-10.457-8.507-18.963-18.963-18.963h-28.657c-10.457,0-18.963,8.507-18.963,18.963v9.462c-1.279-0.273-2.603-0.423-3.962-0.423 c-29.289,0.14-29.139-0.32-32.618,0.423v-9.462c0-10.457-8.507-18.963-18.963-18.963H95.034c-10.457,0-18.963,8.507-18.963,18.963 v147.497c0,1.359,0.15,2.683,0.423,3.962h-8.503V42.003H443.983z"></path><path d="M126.864,15.001h335.159c4.941,0,8.962,4.02,8.962,8.961v394.582c0,4.143,3.357,7.5,7.5,7.5c4.143,0,7.5-3.357,7.5-7.5 V23.961C485.985,10.749,475.236,0,462.023,0H126.864c-4.143,0-7.5,3.358-7.5,7.5S122.721,15.001,126.864,15.001z"></path><path d="M49.977,512h412.046c13.213,0,23.962-10.749,23.962-23.961v-34.492c0-4.143-3.357-7.5-7.5-7.5c-4.143,0-7.5,3.357-7.5,7.5 v34.492c0,4.94-4.02,8.961-8.962,8.961H49.977c-4.941,0-8.962-4.02-8.962-8.961V23.961c0-4.941,4.02-8.961,8.962-8.961h41.886 c4.143,0,7.5-3.358,7.5-7.5S96.005,0,91.862,0H49.977C36.764,0,26.015,10.75,26.015,23.961v464.076 C26.015,501.251,36.764,512,49.977,512z"></path></svg>